<svg width="589" height="113" viewBox="0 0 589 113" fill="none" xmlns="http://www.w3.org/2000/svg">
<path opacity="0.1" d="M113.889 110.603L113.742 7.00302H97.9055L57.5015 75.675L16.3575 7.00302H0.521498V110.603H18.8735V42.819L52.9135 98.763H61.4975L95.5375 41.931L95.6855 110.603H113.889ZM175.617 111.639C200.185 111.639 217.797 94.767 217.797 71.087C217.797 47.407 200.185 30.683 175.617 30.683C151.345 30.683 133.585 47.407 133.585 71.087C133.585 94.767 151.345 111.639 175.617 111.639ZM175.617 95.803C162.297 95.803 152.233 86.183 152.233 71.087C152.233 55.991 162.297 46.371 175.617 46.371C189.085 46.371 199.149 55.991 199.149 71.087C199.149 86.183 189.085 95.803 175.617 95.803ZM294.392 0.787021V41.339C288.176 34.087 279.148 30.683 268.936 30.683C245.996 30.683 228.976 46.519 228.976 71.087C228.976 95.655 245.996 111.639 268.936 111.639C279.74 111.639 288.916 107.939 295.132 100.391V110.603H312.892V0.787021H294.392ZM271.156 95.803C257.836 95.803 247.624 86.183 247.624 71.087C247.624 55.991 257.836 46.371 271.156 46.371C284.476 46.371 294.688 55.991 294.688 71.087C294.688 86.183 284.476 95.803 271.156 95.803ZM411.389 71.531C411.389 46.815 394.517 30.683 371.429 30.683C347.897 30.683 330.581 47.555 330.581 71.087C330.581 94.619 347.749 111.639 374.241 111.639C387.857 111.639 398.957 107.199 406.061 98.763L396.145 87.367C390.521 93.139 383.565 95.951 374.685 95.951C360.921 95.951 351.301 88.551 349.081 77.007H411.093C411.241 75.231 411.389 73.011 411.389 71.531ZM371.429 45.483C383.565 45.483 392.297 53.327 393.777 64.723H348.933C350.709 53.179 359.441 45.483 371.429 45.483ZM429.16 110.603H447.66V0.787021H429.16V110.603ZM546.735 112.083C575.151 112.083 588.619 97.875 588.619 81.299C588.619 43.263 527.199 57.619 527.199 35.567C527.199 27.723 533.711 21.507 549.695 21.507C558.723 21.507 568.935 24.171 578.259 29.647L584.327 14.699C575.299 8.77902 562.275 5.52302 549.843 5.52302C521.427 5.52302 508.107 19.731 508.107 36.455C508.107 74.935 569.675 60.283 569.675 82.631C569.675 90.327 562.867 96.099 546.735 96.099C534.007 96.099 520.835 91.363 512.547 84.703L505.887 99.651C514.471 107.051 530.603 112.083 546.735 112.083Z" fill="#E51937"/>
</svg>
